<?xml version="1.0" standalone="no"?>
<!DOCTYPE svg PUBLIC "-//W3C//DTD SVG 20010904//EN"
 "http://www.w3.org/TR/2001/REC-SVG-20010904/DTD/svg10.dtd">
<svg version="1.0" xmlns="http://www.w3.org/2000/svg"
 width="512.000000pt" height="512.000000pt" viewBox="0 0 512.000000 512.000000"
 preserveAspectRatio="xMidYMid meet">

<g transform="translate(0.000000,512.000000) scale(0.100000,-0.100000)"
fill="#000000" stroke="none">
<path d="M493 4795 c-61 -31 -98 -80 -114 -152 -21 -92 14 -193 85 -241 17
-11 111 -49 208 -83 115 -40 179 -68 182 -78 3 -9 89 -455 191 -991 102 -536
197 -1020 211 -1074 126 -505 360 -810 709 -928 l70 -23 915 -3 915 -2 45 22
c146 74 152 319 10 403 -34 20 -51 20 -910 25 l-875 5 -60 23 c-121 46 -197
113 -265 234 l-32 58 1089 0 c1250 0 1158 -7 1253 88 34 34 69 83 88 122 18
37 138 429 282 920 236 803 251 859 246 913 -8 77 -36 138 -78 170 -77 59 -4
57 -1749 57 l-1597 0 -46 143 c-49 153 -84 215 -137 243 -39 20 -539 174 -566
174 -10 0 -42 -11 -70 -25z m1920 -1231 c99 -65 113 -200 28 -285 -117 -118
-316 -34 -314 132 2 148 161 234 286 153z m1020 25 c50 -14 113 -71 128 -116
27 -83 -9 -182 -81 -221 -77 -43 -152 -36 -217 21 -107 94 -73 264 63 312 48
17 59 18 107 4z m-373 -529 c209 -51 498 -239 530 -347 11 -36 10 -46 -6 -79
-22 -45 -75 -84 -113 -84 -35 0 -77 24 -154 90 -132 112 -277 175 -427 187
-180 14 -366 -58 -534 -205 -32 -29 -74 -56 -92 -61 -103 -29 -194 80 -148
176 23 45 165 163 272 224 90 52 243 105 337 118 95 13 232 5 335 -19z"/>
<path d="M2173 959 c-143 -55 -241 -225 -214 -371 13 -73 26 -104 67 -159 43
-59 110 -102 192 -125 155 -43 322 39 394 193 38 81 41 179 7 268 -30 81 -112
163 -192 193 -75 29 -181 29 -254 1z"/>
<path d="M3553 959 c-111 -43 -203 -163 -218 -284 -21 -165 107 -341 273 -376
148 -30 309 48 379 185 39 74 44 198 12 281 -30 81 -112 164 -192 193 -75 29
-181 29 -254 1z"/>
</g>
</svg>
