<svg xmlns="http://www.w3.org/2000/svg" class="EmptyBasket-asset" width="265" height="130" viewBox="0 0 265 130"><defs><path id="a" d="M20 13V0H0v13h20z"/><path id="c" d="M36.952 67.053h36.952V.82H0v66.232h36.952z"/></defs><g fill="none" fill-rule="evenodd"><path d="M42 81h5v-.5h-5v.5zm-2 12.5h9V82.51h-9V93.5zm4.5 4a1.25 1.25 0 1 1 0-2.5 1.25 1.25 0 0 1 0 2.5zM49 79h-9a2 2 0 0 0-2 2v16a2 2 0 0 0 2 2h9a2 2 0 0 0 2-2V81a2 2 0 0 0-2-2z" fill="#B98EC0"/><g transform="translate(217 102)"><mask id="b" fill="#fff"><use xmlns:xlink="http://www.w3.org/1999/xlink" xlink:href="#a"/></mask><path d="M17.766 5.03a.75.75 0 1 1-1.06-1.06.75.75 0 0 1 1.06 1.06m-1.75-1.75a.75.75 0 1 1-1.06-1.06.75.75 0 0 1 1.06 1.06m0 3.5a.75.75 0 1 1-1.06-1.06.75.75 0 0 1 1.06 1.06m-1.75-1.75a.75.75 0 1 1-1.06-1.06.75.75 0 0 1 1.06 1.06m-8.044.23h-1v1a.75.75 0 1 1-1.5 0v-1h-1a.75.75 0 1 1 0-1.5h1v-1a.75.75 0 0 1 1.5 0v1h1a.75.75 0 1 1 0 1.5M15.5 0h-11A4.5 4.5 0 0 0 0 4.5V9a4 4 0 1 0 8 0 1 1 0 0 1 1-1h2a1 1 0 0 1 1 1 4 4 0 1 0 8 0V4.5A4.5 4.5 0 0 0 15.5 0" fill="#C389AE" mask="url(#b)"/></g><g fill="#ADCA9A"><path d="M206 42h11a2 2 0 0 0 2-2h-15a2 2 0 0 0 2 2m5.5-6a5.256 5.256 0 0 1-5.25-5.25 5.256 5.256 0 0 1 5.25-5.25 5.256 5.256 0 0 1 5.25 5.25A5.256 5.256 0 0 1 211.5 36m5.5-14h-11a2 2 0 0 0-2 2v15h15V24a2 2 0 0 0-2-2"/><path d="M213.17 30.542c0-.894.672-1.623 1.537-1.729A3.744 3.744 0 0 0 211.5 27a3.75 3.75 0 1 0 3.416 5.291 1.75 1.75 0 0 1-1.747-1.75"/></g><path d="M149.788 31h-37.549c-3.7 0-6.577 3.01-6.577 6.568h50.84c0-3.557-3.014-6.568-6.714-6.568" fill="#41BD41"/><g transform="translate(94 41.263)"><mask id="d" fill="#fff"><use xmlns:xlink="http://www.w3.org/1999/xlink" xlink:href="#c"/></mask><path d="M37.013 36.263c-11.1 0-20.144-9.031-20.144-19.979 0-1.231.96-2.19 2.193-2.19s2.192.959 2.192 2.19c0 8.621 6.99 15.463 15.622 15.463 8.634 0 15.623-6.979 15.623-15.463 0-1.231.959-2.19 2.192-2.19 1.234 0 2.193.959 2.193 2.19.274 11.084-8.77 19.98-19.87 19.98zM70.725 9.032c-.275-4.653-4.112-8.21-8.77-8.21H12.072c-4.66 0-8.497 3.557-8.77 8.21L.012 57.61c-.274 5.063 3.7 9.442 8.77 9.442h56.323c5.07 0 9.182-4.38 8.77-9.442l-3.15-48.58z" fill="#41BD41" mask="url(#d)"/></g><circle stroke="#41BD41" cx="81.5" cy="78.5" r="4.5"/><circle stroke="#41BD41" cx="8" cy="58" r="2"/><circle stroke="#41BD41" cx="258" cy="90" r="2"/><circle stroke="#41BD41" cx="193" cy="55" r="3"/><path d="M90 6H74a2 2 0 0 0-2 2v10a2 2 0 0 0 2 2h16a2 2 0 0 0 2-2V8a2 2 0 0 0-2-2zM74 18h16V8H74v10zm13.5 5h-11a2 2 0 0 1 2-2h7a2 2 0 0 1 2 2z" fill="#A69EC8"/><path d="m61.565 37.654-1.082 3.206h-3.5a.98.98 0 0 0-.935.655.927.927 0 0 0 .357 1.057l2.832 1.983-1.082 3.206a.927.927 0 0 0 .357 1.058 1.009 1.009 0 0 0 1.155 0l2.832-1.982 2.833 1.982a1.009 1.009 0 0 0 1.155 0 .927.927 0 0 0 .357-1.058l-1.082-3.206 2.833-1.982a.926.926 0 0 0 .357-1.058.98.98 0 0 0-.935-.654h-3.501l-1.082-3.207a.981.981 0 0 0-.935-.654.98.98 0 0 0-.934.654zm4 71-1.082 3.206h-3.5a.98.98 0 0 0-.935.655.927.927 0 0 0 .357 1.057l2.832 1.983-1.082 3.206a.927.927 0 0 0 .357 1.058 1.009 1.009 0 0 0 1.155 0l2.832-1.982 2.833 1.982a1.009 1.009 0 0 0 1.155 0 .927.927 0 0 0 .357-1.058l-1.082-3.206 2.833-1.982a.926.926 0 0 0 .357-1.058.98.98 0 0 0-.935-.654h-3.501l-1.082-3.207a.981.981 0 0 0-.935-.654.98.98 0 0 0-.934.654zm139-35-1.082 3.206h-3.5a.98.98 0 0 0-.935.655.927.927 0 0 0 .357 1.057l2.832 1.983-1.082 3.206a.927.927 0 0 0 .357 1.058 1.009 1.009 0 0 0 1.155 0l2.832-1.982 2.833 1.982a1.009 1.009 0 0 0 1.155 0 .927.927 0 0 0 .357-1.058l-1.082-3.206 2.833-1.982a.926.926 0 0 0 .357-1.058.98.98 0 0 0-.935-.654h-3.501l-1.082-3.207a.981.981 0 0 0-.935-.654.98.98 0 0 0-.934.654z" fill="#FCD320"/></g></svg>